<svg version="1.1" id="Layer_1" xmlns="http://www.w3.org/2000/svg" xmlns:xlink="http://www.w3.org/1999/xlink" x="0px" y="0px" width="16px" height="16px" viewBox="0 0 16 16" enable-background="new 0 0 16 16" xml:space="preserve">
  <g id="icon">
    <polygon points="13.1,6.9 9.1,6.9 9.1,2.9 6.9,2.9 6.9,6.9 2.9,6.9 2.9,9.1 6.9,9.1 6.9,13.1 9.1,13.1 9.1,9.1 13.1,9.1" fill-rule="evenodd" fill="#FFFFFF" stroke-linejoin="miter"/>
    <path d="M8,0C3.5817,0,0,3.5817,0,8c0,4.4183,3.5817,8,8,8s8,-3.5817,8,-8C16,3.5817,12.4183,0,8,0zM13,8.5917c0,0.2255,-0.1828,0.4083,-0.4083,0.4083H9v3.5917c0,0.2255,-0.1828,0.4083,-0.4083,0.4083H7.4083c-0.2255,0,-0.4083,-0.1828,-0.4083,-0.4083V9H3.4083C3.1828,9,3,8.8172,3,8.5917V7.4083C3,7.1828,3.1828,7,3.4083,7H7V3.4083C7,3.1828,7.1828,3,7.4083,3h1.1833C8.8172,3,9,3.1828,9,3.4083V7h3.5917c0.2255,0,0.4083,0.1828,0.4083,0.4083V8.5917z" fill-rule="evenodd" fill="#4EA17E"/>
  </g>
</svg>
